# xmcd CD database file generated by Grip 2.96
# 
# Track frame offsets:
#       150
#       15250
#       35055
#       54355
#       69120
#       83702
#       99115
#       122937
#       141400
#       158377
#       170687
#       185272
#       198357
#       207932
# 
# Disc length: 2950 seconds
# 
# Revision: 0
# Processed by: cddbd v1.4PL0 Copyright (c) Steve Scherf et al.
# Submitted via: Grip 2.96
# 
DISCID=ae0b840e
DTITLE=Various Artist - Howlin' The Blues Alive and Well
DYEAR=1900
DGENRE=
TTITLE0=Jimmy Reed - Can't Stand To Love
TTITLE1=John Lee Hooker - House Rent Boogie
TTITLE2=Howlin' Wolf - Howlin' For My Darlin'
TTITLE3=Big Bill Broonzy - Baby Please Don't Go
TTITLE4=Sippy Wallace - Mighty Tight Woman
TTITLE5=Big Joe Williams - Nobody Knows You When You're Down And Out
TTITLE6=Lightnin Hopkins with Big Joe Williams and Sonny Terry - Early Morning Blues
TTITLE7=Booker T. "Bukka" White - Aberdean Mississippi Blues
TTITLE8=Robert Pete Williams - Ugly
TTITLE9=Elmore James - Blues Before Sunrise
TTITLE10=Sonny Terry and Brownie McGhee - Trouble In Mind
TTITLE11=Mississippi Fred McDowell - You Gotta Move
TTITLE12=Lowell Fulsom - Everyday I Have The Blues
TTITLE13=Lightnin' Slim - That's All Right
EXTD=
EXTT0=
EXTT1=
EXTT2=
EXTT3=
EXTT4=
EXTT5=
EXTT6=
EXTT7=
EXTT8=
EXTT9=
EXTT10=
EXTT11=
EXTT12=
EXTT13=
PLAYORDER=
